<svg xmlns="http://www.w3.org/2000/svg" viewBox="0 0 256 256" width="400" height="400" role="img" aria-label="Counterbalance forklift 5 tonne">
  <rect width="256" height="256" fill="#FFFFFF"/>
  <ellipse cx="136" cy="232" rx="118" ry="7" fill="#D0D0D0" opacity="0.55"/>

  <!-- larger mast with 3 channels (triplex) -->
  <g stroke="#2A2A2A" stroke-width="3" stroke-linejoin="round">
    <rect x="52" y="22" width="14" height="178" fill="#D0D0D0"/>
    <rect x="72" y="22" width="14" height="178" fill="#D0D0D0"/>
    <rect x="92" y="22" width="14" height="178" fill="#D0D0D0"/>
    <rect x="46" y="16" width="66" height="10" fill="#2A2A2A"/>
    <path d="M52 72 L106 72 M52 122 L106 122" stroke-width="2"/>
    <path d="M110 52 L136 84" stroke="#2A2A2A" stroke-width="6" stroke-linecap="round"/>
  </g>

  <!-- carriage & longer heavy-duty forks -->
  <g stroke="#2A2A2A" stroke-width="3" stroke-linejoin="round">
    <rect x="42" y="140" width="60" height="18" fill="#FFC72C"/>
    <rect x="8" y="160" width="84" height="14" fill="#FFC72C"/>
    <rect x="8" y="174" width="84" height="10" fill="#2A2A2A"/>
    <path d="M8 160 L0 164 L0 180 L8 184 Z" fill="#FFC72C"/>
  </g>

  <!-- big chassis body -->
  <g stroke="#2A2A2A" stroke-width="3" stroke-linejoin="round">
    <path d="M110 82 L202 82 L236 120 L242 200 L114 200 Z" fill="#FFC72C"/>
    <!-- huge counterweight -->
    <rect x="220" y="156" width="30" height="44" fill="#2A2A2A"/>
    <path d="M110 146 L224 146" stroke-width="2"/>
    <!-- exhaust stack -->
    <rect x="180" y="8" width="10" height="34" fill="#2A2A2A"/>
    <circle cx="185" cy="7" r="5" fill="#2A2A2A"/>
    <!-- headlamp -->
    <circle cx="114" cy="172" r="6" fill="#D0D0D0" stroke="#2A2A2A" stroke-width="2"/>
    <!-- steering wheel -->
    <circle cx="152" cy="86" r="10" fill="none" stroke-width="3"/>
    <path d="M142 86 L162 86 M152 76 L152 96" stroke-width="2"/>
    <!-- operator seat (larger, arm rests) -->
    <path d="M164 74 L200 74 L198 124 L164 124 Z" fill="#2A2A2A"/>
    <path d="M164 98 L160 98 M200 98 L204 98" stroke-width="4"/>
    <!-- overhead guard (taller) -->
    <path d="M122 82 L122 10 L218 10 L218 82" stroke-width="6" fill="none"/>
    <path d="M120 10 L220 10 M130 26 L210 26" stroke-width="3"/>
  </g>

  <!-- wheels: large dual fronts visible -->
  <g stroke="#2A2A2A" stroke-width="3" fill="#2A2A2A">
    <circle cx="132" cy="210" r="22"/>
    <circle cx="132" cy="210" r="8" fill="#D0D0D0"/>
    <path d="M120 210 L144 210 M132 198 L132 222" stroke="#D0D0D0" stroke-width="2"/>
    <circle cx="218" cy="216" r="16"/>
    <circle cx="218" cy="216" r="5" fill="#D0D0D0"/>
  </g>
</svg>
